# xmcd
#
# Track frame offsets:
#	150
#	20992
#	42643
#	60139
#	74754
#	116359
#	130154
#	148316
#	161760
#	183704
#	205861
#
# Disc length: 3047 seconds
#
# Revision: 1
# Processed by: cddbd v1.5.2PL0 Copyright (c) Steve Scherf et al.
# Submitted via: audiograbber 1.83.01
#
DISCID=ae0be50b
DTITLE=Buddy Miller - Universal Painted House Prayer
DYEAR=2004
DGENRE=Country
TTITLE0=Worry Too Much
TTITLE1=There´s A Higher Power
TTITLE2=Shelter Me
TTITLE3=With God On Our Side
TTITLE4=Wide River To Cross
TTITLE5=Fire And Water
TTITLE6=Don´t Wait
TTITLE7=This Old World
TTITLE8=Is That You
TTITLE9=Returning
TTITLE10=Fall On The Rock
EXTD=
EXTT0=
EXTT1=
EXTT2=
EXTT3=
EXTT4=
EXTT5=
EXTT6=
EXTT7=
EXTT8=
EXTT9=
EXTT10=
PLAYORDER=
